<svg xmlns="http://www.w3.org/2000/svg" width="800" height="260" viewBox="0 0 800 260" role="img" aria-label="Clause review diagram for Spell of API Design">
  <rect width="800" height="260" fill="#ffffff"/>
  <text x="30" y="34" font-size="20" font-family="Arial" font-weight="700" fill="#111827">Spell of API Design</text>
  <text x="30" y="54" font-size="12" font-family="Arial" fill="#4b5563">spell://api-design/828C8A1237</text>
  <rect x="30" y="70" width="155" height="56" rx="6" fill="#f6f8fa" stroke="#4b5563" /><text x="42" y="94" font-size="14" font-family="Arial" fill="#111827">Role</text><text x="42" y="114" font-size="11" font-family="Arial" fill="#374151">Act as a backend architect</text><rect x="215" y="70" width="155" height="56" rx="6" fill="#e8f2ff" stroke="#4b5563" /><text x="227" y="94" font-size="14" font-family="Arial" fill="#111827">Objective</text><text x="227" y="114" font-size="11" font-family="Arial" fill="#374151">Design an API for the desc</text><rect x="400" y="70" width="155" height="56" rx="6" fill="#eef9f0" stroke="#4b5563" /><text x="412" y="94" font-size="14" font-family="Arial" fill="#111827">Context</text><text x="412" y="114" font-size="11" font-family="Arial" fill="#374151">Clients include web, mobil</text><rect x="585" y="70" width="155" height="56" rx="6" fill="#fff6df" stroke="#4b5563" /><text x="597" y="94" font-size="14" font-family="Arial" fill="#111827">Constraints</text><text x="597" y="114" font-size="11" font-family="Arial" fill="#374151">Prefer boring, maintainabl</text><rect x="30" y="160" width="155" height="56" rx="6" fill="#f7eefc" stroke="#4b5563" /><text x="42" y="184" font-size="14" font-family="Arial" fill="#111827">Procedure</text><text x="42" y="204" font-size="11" font-family="Arial" fill="#374151">Start from the resource mo</text><rect x="215" y="160" width="155" height="56" rx="6" fill="#edf7f8" stroke="#4b5563" /><text x="227" y="184" font-size="14" font-family="Arial" fill="#111827">Output</text><text x="227" y="204" font-size="11" font-family="Arial" fill="#374151">Return:

1\</text><rect x="400" y="160" width="155" height="56" rx="6" fill="#fff0f0" stroke="#4b5563" /><text x="412" y="184" font-size="14" font-family="Arial" fill="#111827">Verification</text><text x="412" y="204" font-size="11" font-family="Arial" fill="#374151">Call out edge cases, race </text><rect x="585" y="160" width="155" height="56" rx="6" fill="#eef0ff" stroke="#4b5563" /><text x="597" y="184" font-size="14" font-family="Arial" fill="#111827">Failure</text><text x="597" y="204" font-size="11" font-family="Arial" fill="#374151">If the resource model is u</text>
  <path d="M100 170 C180 218, 620 218, 700 170" fill="none" stroke="#6b7280" stroke-dasharray="6 6"/>
  <text x="260" y="230" font-size="12" font-family="Arial" fill="#374151">Verification and failure behavior close the loop.</text>
</svg>
