<svg xmlns="http://www.w3.org/2000/svg" width="760" height="230" viewBox="0 0 760 230" role="img" aria-label="Stack graph for Release Gate Stack">
  <defs><marker id="arrow" markerWidth="8" markerHeight="8" refX="6" refY="3" orient="auto"><path d="M0,0 L0,6 L6,3 z" fill="#374151"/></marker></defs>
  <rect width="760" height="230" fill="#ffffff"/>
  <text x="30" y="34" font-size="20" font-family="Arial" font-weight="700" fill="#111827">Release Gate Stack</text>
  <text x="30" y="54" font-size="12" font-family="Arial" fill="#4b5563">stack://release-gate-stack/5798FD1FC7</text>
  <rect x="30" y="86" width="118" height="70" rx="6" fill="#eef9f0" stroke="#4b5563" /><text x="40" y="112" font-size="12" font-family="Arial" font-weight="700" fill="#111827">1. Assemble candidate</text><text x="40" y="136" font-size="10" font-family="Arial" fill="#374151">Frozen release artifac</text><rect x="175" y="86" width="118" height="70" rx="6" fill="#eef9f0" stroke="#4b5563" /><text x="185" y="112" font-size="12" font-family="Arial" font-weight="700" fill="#111827">2. Quality gate</text><text x="185" y="136" font-size="10" font-family="Arial" fill="#374151">Tests, static checks, </text><rect x="320" y="86" width="118" height="70" rx="6" fill="#eef9f0" stroke="#4b5563" /><text x="330" y="112" font-size="12" font-family="Arial" font-weight="700" fill="#111827">3. Stage deploy</text><text x="330" y="136" font-size="10" font-family="Arial" fill="#374151">Staging or canary depl</text><rect x="465" y="86" width="118" height="70" rx="6" fill="#eef9f0" stroke="#4b5563" /><text x="475" y="112" font-size="12" font-family="Arial" font-weight="700" fill="#111827">4. Observe</text><text x="475" y="136" font-size="10" font-family="Arial" fill="#374151">Metrics, logs, traces,</text><rect x="610" y="86" width="118" height="70" rx="6" fill="#eef9f0" stroke="#4b5563" /><text x="620" y="112" font-size="12" font-family="Arial" font-weight="700" fill="#111827">5. Promote or rollback</text><text x="620" y="136" font-size="10" font-family="Arial" fill="#374151">Release decision</text>
  <path d="M148 121 L173 121" stroke="#374151" marker-end="url(#arrow)" /><path d="M293 121 L318 121" stroke="#374151" marker-end="url(#arrow)" /><path d="M438 121 L463 121" stroke="#374151" marker-end="url(#arrow)" /><path d="M583 121 L608 121" stroke="#374151" marker-end="url(#arrow)" />
  <text x="30" y="198" font-size="12" font-family="Arial" fill="#374151">Linear release gate: Rollback the candidate and open a repair stack instead of arguing from hope.</text>
</svg>
