<svg xmlns="http://www.w3.org/2000/svg" width="1200" height="230" viewBox="0 0 1200 230" role="img" aria-label="Stack graph for Live Migration Stack">
  <defs><marker id="arrow" markerWidth="8" markerHeight="8" refX="6" refY="3" orient="auto"><path d="M0,0 L0,6 L6,3 z" fill="#374151"/></marker></defs>
  <rect width="1200" height="230" fill="#ffffff"/>
  <text x="30" y="34" font-size="20" font-family="Arial" font-weight="700" fill="#111827">Live Migration Stack</text>
  <text x="30" y="54" font-size="12" font-family="Arial" fill="#4b5563">stack://live-migration-stack/23AA56B454</text>
  <rect x="30" y="86" width="118" height="70" rx="6" fill="#eef9f0" stroke="#4b5563" /><text x="40" y="112" font-size="12" font-family="Arial" font-weight="700" fill="#111827">1. Inventory</text><text x="40" y="136" font-size="10" font-family="Arial" fill="#374151">Dependency and blast-r</text><rect x="175" y="86" width="118" height="70" rx="6" fill="#eef9f0" stroke="#4b5563" /><text x="185" y="112" font-size="12" font-family="Arial" font-weight="700" fill="#111827">2. Prepare rollback</text><text x="185" y="136" font-size="10" font-family="Arial" fill="#374151">Backup, snapshot, flag</text><rect x="320" y="86" width="118" height="70" rx="6" fill="#eef9f0" stroke="#4b5563" /><text x="330" y="112" font-size="12" font-family="Arial" font-weight="700" fill="#111827">3. Expand compatibly</text><text x="330" y="136" font-size="10" font-family="Arial" fill="#374151">Backward-compatible ne</text><rect x="465" y="86" width="118" height="70" rx="6" fill="#eef9f0" stroke="#4b5563" /><text x="475" y="112" font-size="12" font-family="Arial" font-weight="700" fill="#111827">4. Backfill</text><text x="475" y="136" font-size="10" font-family="Arial" fill="#374151">New representation</text><rect x="610" y="86" width="118" height="70" rx="6" fill="#eef9f0" stroke="#4b5563" /><text x="620" y="112" font-size="12" font-family="Arial" font-weight="700" fill="#111827">5. Compare parity</text><text x="620" y="136" font-size="10" font-family="Arial" fill="#374151">Parity report</text><rect x="755" y="86" width="118" height="70" rx="6" fill="#eef9f0" stroke="#4b5563" /><text x="765" y="112" font-size="12" font-family="Arial" font-weight="700" fill="#111827">6. Cut over</text><text x="765" y="136" font-size="10" font-family="Arial" fill="#374151">Read or write switch</text><rect x="900" y="86" width="118" height="70" rx="6" fill="#eef9f0" stroke="#4b5563" /><text x="910" y="112" font-size="12" font-family="Arial" font-weight="700" fill="#111827">7. Observe</text><text x="910" y="136" font-size="10" font-family="Arial" fill="#374151">Live metrics and diver</text><rect x="1045" y="86" width="118" height="70" rx="6" fill="#eef9f0" stroke="#4b5563" /><text x="1055" y="112" font-size="12" font-family="Arial" font-weight="700" fill="#111827">8. Contract</text><text x="1055" y="136" font-size="10" font-family="Arial" fill="#374151">Removed old paths</text>
  <path d="M148 121 L173 121" stroke="#374151" marker-end="url(#arrow)" /><path d="M293 121 L318 121" stroke="#374151" marker-end="url(#arrow)" /><path d="M438 121 L463 121" stroke="#374151" marker-end="url(#arrow)" /><path d="M583 121 L608 121" stroke="#374151" marker-end="url(#arrow)" /><path d="M728 121 L753 121" stroke="#374151" marker-end="url(#arrow)" /><path d="M873 121 L898 121" stroke="#374151" marker-end="url(#arrow)" /><path d="M1018 121 L1043 121" stroke="#374151" marker-end="url(#arrow)" />
  <text x="30" y="198" font-size="12" font-family="Arial" fill="#374151">Loop/recovery rule present: Rollback immediately using the prepared boundary and preserve divergence samples.</text>
</svg>
