<svg xmlns="http://www.w3.org/2000/svg" width="820" height="310" viewBox="0 0 820 310" role="img" aria-label="Trust-boundary diagram for Spell of Jailbreak-Resilience Review">
  <rect width="820" height="310" fill="#ffffff"/>
  <text x="30" y="34" font-size="20" font-family="Arial" font-weight="700" fill="#111827">Warded Spell Trust Boundary</text>
  <rect x="40" y="70" width="220" height="170" rx="8" fill="#eef9f0" stroke="#166534"/>
  <text x="60" y="100" font-size="14" font-family="Arial" font-weight="700" fill="#166534">Trusted Inputs</text>
  <text x="60" y="128" font-size="11" font-family="Arial" fill="#14532d">system/developer policy</text>
  <text x="60" y="148" font-size="11" font-family="Arial" fill="#14532d">declared user objective</text>
  <text x="60" y="168" font-size="11" font-family="Arial" fill="#14532d">allowed tool list</text>
  <rect x="300" y="70" width="220" height="170" rx="8" fill="#fff6df" stroke="#92400e"/>
  <text x="320" y="100" font-size="14" font-family="Arial" font-weight="700" fill="#92400e">Untrusted Inputs</text>
  <text x="320" y="128" font-size="11" font-family="Arial" fill="#78350f">retrieved chunks</text>
  <text x="320" y="148" font-size="11" font-family="Arial" fill="#78350f">logs, tickets, files</text>
  <text x="320" y="168" font-size="11" font-family="Arial" fill="#78350f">prior scope pressure</text>
  <rect x="560" y="70" width="220" height="170" rx="8" fill="#fff0f0" stroke="#991b1b"/>
  <text x="580" y="100" font-size="14" font-family="Arial" font-weight="700" fill="#991b1b">Forbidden Outputs</text>
  <text x="580" y="128" font-size="11" font-family="Arial" fill="#7f1d1d">secrets and canaries</text>
  <text x="580" y="148" font-size="11" font-family="Arial" fill="#7f1d1d">hidden instructions</text>
  <text x="580" y="168" font-size="11" font-family="Arial" fill="#7f1d1d">working bypass prompts</text>
  <path d="M260 155 L300 155 M520 155 L560 155" stroke="#374151" marker-end="url(#arrow)"/>
  <defs><marker id="arrow" markerWidth="8" markerHeight="8" refX="6" refY="3" orient="auto"><path d="M0,0 L0,6 L6,3 z" fill="#374151"/></marker></defs>
  <text x="110" y="276" font-size="12" font-family="Arial" fill="#374151">Decision rule: quarantine hostile data, preserve safe task utility, log residual risk.</text>
</svg>
